<svg xmlns="http://www.w3.org/2000/svg" xml:space="preserve" width="512" height="242.11" x="0px" y="0px" viewBox="0 0 512 242.11"><path d="M5.75 140.69h499.52V371.3H5.75z" style="fill:#fff" transform="translate(0 -134.94)"/><path d="M0 0h512v242.11H0Zm12.34 12.21v217.56H499.8V12.21Z"/><path d="M24.55 24.55v193.02h462.9V24.55Zm328.38 28.2h29.04l-4.21 21.88h-29.04ZM132.7 143.64c-3.65 7.86-8.84 14.31-15.99 18.8-7.01 4.77-15.99 7.01-26.37 7.01-13.33 0-23-3.65-29.32-10.66s-9.4-16.13-9.4-26.93c0-8.42 1.82-16.41 5.47-24.27 3.65-7.86 9.12-13.89 16.41-18.24 7.01-4.49 15.71-6.59 25.67-6.59 13.61 0 23.29 3.65 29.46 11.22 6.31 7.57 9.12 16.41 9.12 26.37.14 7.58-1.68 15.44-5.05 23.29zm97.63-11.22c-2.38 11.22-3.65 19.36-3.65 23.71 0 3.65.56 7.57 1.82 11.5h-28.2c-.56-3.37-.98-6.59-.98-9.4-7.57 7.57-15.99 11.5-25.39 11.5s-16.13-2.38-20.34-7.29c-4.21-4.91-6.31-10.66-6.31-16.97 0-7.29 1.82-13.05 5.47-16.97 3.65-3.93 8.42-6.59 13.89-7.86 5.47-1.26 12.76-2.67 22.16-3.65 8.42-.98 13.89-2.1 16.69-2.81.56-2.38.84-4.49.84-5.75 0-2.1-.98-3.65-2.81-4.91-1.82-1.26-4.49-1.82-7.57-1.82-3.37 0-6.03.56-8.14 1.82-2.1.98-3.93 2.67-5.47 6.31l-26.93.28c1.82-7.86 5.75-16.41 12.06-20.62 6.31-4.21 15.99-6.59 29.04-6.59 14.87 0 24.83 2.1 30.02 6.31 5.19 4.21 7.86 10.24 7.86 17.96-.13 4.91-1.68 13.19-4.06 25.25zm49.38-20.34c1.54 1.26 5.75 2.67 12.76 3.65 11.22 1.82 18.52 4.77 22.16 8.42 3.65 3.65 5.47 8.56 5.47 14.87 0 8.56-3.65 15.99-10.66 21.88-7.29 6.03-17.96 9.12-32.96 9.12-12.06 0-20.9-1.82-26.37-5.75-5.47-3.93-8.84-10.24-9.68-19.08l28.48-2.81c1.26 6.73 5.19 10.24 12.06 10.24 3.09 0 6.03-.84 8.42-2.38 2.39-1.54 3.65-3.65 3.65-6.59 0-2.67-.84-4.21-2.67-5.19-1.82-.84-4.91-1.82-9.96-2.67-11.22-1.82-18.8-4.91-22.72-8.84-3.93-3.93-6.03-8.84-6.03-14.87 0-4.91 1.54-9.68 4.49-14.31 2.81-4.77 7.57-8.42 13.61-10.94 6.03-2.67 13.33-3.93 22.16-3.93 10.24 0 17.81 1.54 23.29 4.91 5.47 3.09 9.12 12.06 9.4 20.06h-26.37c-.84-4.91-4.21-7.57-10.24-7.57-3.37 0-6.31.84-7.86 2.1-1.82 1.26-2.67 3.09-2.67 4.91-.01 1.83.69 3.37 2.24 4.77zm80.23 55.55H330.9l16.27-83.04h29.04zm56.95-55.55c1.54 1.26 5.75 2.67 12.76 3.65 11.22 1.82 18.52 4.77 22.16 8.42 3.65 3.65 5.47 8.56 5.47 14.87 0 8.56-3.65 15.99-10.66 21.88-7.29 6.03-17.96 9.12-32.96 9.12-12.06 0-20.9-1.82-26.37-5.75-5.47-3.93-8.84-10.24-9.68-19.08l28.48-2.81c1.26 6.73 5.19 10.24 12.06 10.24 3.09 0 6.03-.84 8.42-2.38 2.39-1.54 3.65-3.65 3.65-6.59 0-2.67-.84-4.21-2.67-5.19-1.82-.84-4.91-1.82-9.96-2.67-11.22-1.82-18.8-4.91-22.72-8.84-3.93-3.93-6.03-8.84-6.03-14.87 0-4.91 1.54-9.68 4.49-14.31 2.81-4.77 7.57-8.42 13.61-10.94 6.03-2.67 13.33-3.93 22.16-3.93 10.24 0 17.81 1.54 23.29 4.91 5.47 3.09 10.24 12.48 10.94 20.06h-27.91c-.84-4.91-4.21-7.57-10.24-7.57-3.37 0-6.31.84-7.86 2.1-1.82 1.26-2.67 3.09-2.67 4.91-.14 1.83.7 3.37 2.24 4.77z"/><path d="M175.48 143.64c0 2.67.84 4.77 2.38 6.31s3.93 2.38 6.31 2.38c3.65 0 7.29-1.54 10.66-4.91 3.65-3.09 6.03-8.84 7.29-16.97-13.33 2.38-21.18 4.77-23.57 6.59-1.95 1.98-3.07 3.94-3.07 6.6zM98.19 104.23c-6.03 0-10.66 3.09-13.61 9.12-3.09 6.03-4.77 12.34-4.77 18.8 0 4.77 1.26 8.42 3.65 11.5 2.38 3.09 5.19 4.77 8.56 4.77 5.47 0 9.68-3.09 12.76-9.12 3.09-6.03 4.77-12.76 4.77-20.34 0-5.47-1.26-9.12-3.65-11.22-2.24-2.53-4.76-3.51-7.71-3.51z"/></svg>